<svg width="98" height="138" viewBox="0 0 98 138" fill="none" xmlns="http://www.w3.org/2000/svg">
<path d="M97.0876 39.5484C96.2771 39.0593 92.5611 38.6406 92.5611 38.6406L78.6495 40.705L74.1271 42.0275C74.1271 42.0275 70.3706 33.1891 66.3669 31.1081C54.5584 24.9892 54.8866 23.501 54.8866 23.501C54.8866 23.501 57.9745 8.9045 58.2825 7.4577C58.5864 5.99847 56.8358 -0.315208 49.0675 0.0122906C41.3073 0.343935 40.0146 6.30109 40.0146 6.30109L39.8565 11.7566C39.8565 11.7566 38.4058 12.5858 39.2082 14.7373C40.0146 16.8888 41.9597 19.3637 41.9597 19.3637L41.6355 22.3485L19.3194 33.0979C19.3194 33.0979 14.1445 37.2311 8.48343 38.3918C2.82638 39.5443 -0.569468 43.354 0.0789042 47.3213C0.723224 51.2928 6.86655 54.4351 6.86655 54.4351C6.86655 54.4351 7.0327 61.9095 7.46224 67.5558C7.88774 73.2103 12.6128 76.9496 13.3341 77.5922C14.0554 78.2306 19.6435 80.0795 19.6435 80.0795C19.6435 80.0795 25.6248 80.407 29.0166 77.2605C30.6334 81.5595 33.5471 81.8911 33.8672 84.2085C34.1914 86.53 32.4165 88.1799 34.0252 89.8298C35.6462 91.4839 40.6589 98.7635 40.6589 100.749C40.6589 102.735 38.5557 128.537 38.5557 128.537H41.4694L43.7346 120.271L44.2087 119.466L45.1854 124.735C45.1854 124.735 46.32 129.2 51.3327 129.532C56.3455 129.863 57.1519 129.631 58.4405 129.532C59.7373 129.428 53.598 117.456 53.4359 116.133C53.2779 114.815 56.0213 117.456 55.5391 114.985C55.4134 114.355 55.0771 112.713 54.6273 110.591H59.255L61.03 123.077H63.6153L60.7625 110.591H61.2609L63.9395 119.939L63.7774 112.498L63.3925 110.591H65.4105V108.858H63.048L58.8295 87.8151C58.8295 87.8151 61.5122 87.5249 64.2637 89.6682C67.0112 91.8238 64.7378 122.729 64.7378 122.729C64.7378 122.729 62.6347 132.84 64.4258 133.329C66.2007 133.806 68.3971 134.266 68.3971 134.266C68.3971 134.266 69.706 134.921 72.5588 136.347C75.4157 137.786 83.492 137.479 83.2813 135.609C83.0665 133.752 80.5622 131.824 80.5622 131.824L74.7147 127.26L73.6327 121.759C73.6327 121.759 78.9615 123.243 78.9656 120.602C78.9737 117.953 79.3141 112.158 79.5977 106.872C79.8814 101.587 82.3614 88.0099 82.3614 82.0611C82.3614 76.1122 80.2582 74.284 80.2582 74.284L74.1109 69.3259H76.7003C76.7003 69.3259 83.6582 67.1702 76.7003 48.1546L78.6414 46.998L80.5824 48.3204L93.5134 46.6705L94.717 44.6392L97.0754 44.0256C97.0876 44.0173 97.898 40.0459 97.0876 39.5484ZM20.3365 42.1477C24.1133 42.0855 28.7451 45.3398 30.6335 45.232C32.5178 45.1242 33.9158 42.5457 37.255 41.4388C40.5981 40.3361 43.1349 40.9869 45.08 42.583C47.017 44.1873 47.017 48.8676 47.017 48.8676L39.2568 50.6875C39.2568 50.6875 37.4778 48.6438 34.4588 49.0335C31.4399 49.4231 29.4502 52.2836 29.4502 52.2836C29.4502 52.2836 27.5496 49.7797 26.1111 49.0335C24.6725 48.2914 18.8858 45.1739 16.9447 45.232C15.0036 45.2942 13.9257 44.6267 14.1932 43.7976C14.4647 42.9727 16.5638 42.2016 20.3365 42.1477ZM41.7328 67.676C35.8569 69.7654 34.5115 67.2283 31.8694 68.1113C29.2273 68.9943 26.4758 75.6106 19.7935 77.2564C13.1152 78.9105 9.5573 71.9749 8.67389 68.617C7.83506 65.4084 7.83101 54.431 7.83101 54.431C7.83101 54.431 14.6754 53.2702 15.4332 53.4402C16.1869 53.606 17.6944 57.4075 17.6944 57.4075L18.286 68.9943L20.9322 68.6212L21.4144 61.5489C21.4144 61.5489 26.3177 62.6972 27.3956 62.3738C28.4776 62.0463 29.823 60.2182 29.823 60.2182C29.823 60.2182 30.9617 62.9211 34.6777 62.5438C38.3977 62.1541 39.7998 58.3527 39.7998 58.3527L47.7181 56.1431C47.714 56.1472 47.6087 65.5784 41.7328 67.676ZM54.2545 108.862C52.9375 102.602 51.0572 93.7723 50.6763 91.9855C50.1211 89.3572 48.4151 85.7009 52.127 85.535C55.8511 85.3734 55.8673 86.816 55.8673 86.816L59.0038 108.862H54.2545V108.862ZM60.7666 108.862H60.3654L58.789 101.985L60.7666 108.862Z" fill="black"/>
</svg>
